<svg width="157" height="157" viewBox="0 0 157 157" fill="none" xmlns="http://www.w3.org/2000/svg">
<path d="M82.0454 4.93648C92.1657 -3.63691 107.734 0.534514 112.211 13.0194L117.57 27.96C119.487 33.3054 123.695 37.5131 129.04 39.4303L143.981 44.7887C156.465 49.2664 160.637 64.8343 152.064 74.9546L141.804 87.0654C138.133 91.3984 136.593 97.1462 137.605 102.734L140.435 118.352C142.8 131.403 131.403 142.8 118.352 140.435L102.734 137.605C97.1462 136.593 91.3984 138.133 87.0654 141.804L74.9546 152.064C64.8343 160.637 49.2664 156.465 44.7887 143.981L39.4303 129.04C37.5131 123.695 33.3054 119.487 27.96 117.57L13.0194 112.211C0.534508 107.734 -3.63691 92.1657 4.93648 82.0454L15.1962 69.9346C18.8669 65.6016 20.407 59.8538 19.3946 54.2659L16.5648 38.6478C14.2002 25.5967 25.5967 14.2002 38.6478 16.5648L54.2659 19.3946C59.8538 20.407 65.6016 18.8669 69.9346 15.1962L82.0454 4.93648Z" fill="white"/>
</svg>
